HIERARCHY
ROOT Hips
{
	OFFSET 0.00000 0.00000 0.00000
	CHANNELS 6 Xposition Yposition Zposition Yrotation Zrotation Xrotation 
	JOINT Lumbar
	{
		OFFSET 0 0 0
		CHANNELS 3 Zrotation Xrotation Yrotation
		JOINT Neck
		{
			OFFSET 0.00 0.2701 0.00
			CHANNELS 3 Zrotation Xrotation Yrotation
			End Site
			{
				OFFSET 0.00 0.1379 0.00
			}
		}
		JOINT RightShoulder
		{
			OFFSET 0.0119 0.2289 0.1181
			CHANNELS 3 Zrotation Xrotation Yrotation
			JOINT RightElbow
			{
				OFFSET 0.00 -0.1475 0.00
				CHANNELS 2 Zrotation Yrotation
				JOINT RightWrist
				{
					OFFSET 0.00 -0.1605 0.00
					CHANNELS 2 Zrotation Xrotation
					End Site
					{
						OFFSET 0.0040 -0.1068 0.0006
					}
				}
			}
		}
		JOINT LeftShoulder
		{
			OFFSET 0.0119 0.2289 -0.1181
			CHANNELS 3 Zrotation Xrotation Yrotation
			JOINT LeftElbow
			{
				OFFSET 0.00 -0.1475 0.00
				CHANNELS 2 Zrotation Yrotation
				JOINT LeftWrist
				{
					OFFSET 0.00 -0.1605 0.00
					CHANNELS 2 Zrotation Xrotation
					End Site
					{
						OFFSET 0.0040 -0.1068 -0.0006
					}
				}
			}
		}
	}
	JOINT RightHip
	{
		OFFSET 0.0316 -0.0424 0.0458
		CHANNELS 3 Zrotation Xrotation Yrotation
		JOINT RightKnee
		{
			OFFSET 0.00 -0.2438 0.00
			CHANNELS 1 Zrotation
			JOINT RightAnkle
			{
				OFFSET 0.00 -0.2449 0.00
				CHANNELS 3 Zrotation Xrotation Yrotation
				End Site
				{
					OFFSET 0.1237 -0.0542 0.0051
				}
			}
		}
	}
	JOINT LeftHip
	{
		OFFSET 0.0316 -0.0424 -0.0458
		CHANNELS 3 Zrotation Xrotation Yrotation
		JOINT LeftKnee
		{
			OFFSET 0.00 -0.2438 0.00
			CHANNELS 1 Zrotation
			JOINT LeftAnkle
			{
				OFFSET 0.00 -0.2449 0.00
				CHANNELS 3 Zrotation Xrotation Yrotation
				End Site
				{
					OFFSET 0.1237 -0.0542 -0.0051
				}
			}
		}
	}
}
MOTION
Frames: 11
Frame Time: 0.02
0.00121 -0.00037 -6e-05 171.60942 -34.04266 -2.40086 46.45531 3.62093 -5.13843 -5.34172 -8.64964 -0.04394 -25.01401 -12.23997 4.38553 42.2144 91.44192 6.63253 0.07493 -27.50306 12.71246 -4.70739 38.49316 -96.63319 12.75611 0.15539 35.74211 -0.84244 -3.75562 -21.36564 -8.32478 -4.65563 -3.18649 38.0806 9.16374 3.20764 -27.25827 -9.1963 4.97053 3.43286
0.00096 -0.00037 8e-05 171.60966 -33.83365 -2.40188 46.23441 3.6168 -5.18674 -5.37222 -8.63225 -0.06758 -25.07374 -12.23538 4.24846 42.07012 91.38862 6.61383 0.07214 -27.57827 12.73803 -4.63724 38.4976 -96.63706 12.76072 0.15475 35.44945 -0.86242 -3.81751 -21.28849 -8.32747 -4.65328 -3.18556 37.78885 9.19948 3.44438 -27.20478 -9.17291 4.95332 3.4213
0.00072 -0.00038 0.00023 171.60979 -33.62556 -2.40291 46.01446 3.61271 -5.23487 -5.40265 -8.61486 -0.09114 -25.13332 -12.23077 4.11171 41.92604 91.33555 6.59525 0.06935 -27.65319 12.76362 -4.56754 38.50236 -96.64072 12.7653 0.15413 35.15801 -0.88244 -3.87956 -21.21166 -8.33012 -4.65091 -3.18461 37.49829 9.23501 3.68011 -27.15152 -9.14962 4.9362 3.4098
0.00047 -0.00039 0.00037 171.61001 -33.41726 -2.40393 45.7943 3.6086 -5.28302 -5.43305 -8.59751 -0.11471 -25.19288 -12.22619 3.97505 41.78216 91.28241 6.57662 0.06657 -27.72814 12.78912 -4.49764 38.50681 -96.64454 12.7699 0.1535 34.86634 -0.90238 -3.9413 -21.13477 -8.33279 -4.64856 -3.18368 37.20751 9.27063 3.91606 -27.09821 -9.12631 4.91906 3.39827
0.00023 -0.0004 0.00051 171.61037 -33.20788 -2.40493 45.57305 3.60445 -5.33137 -5.46351 -8.58018 -0.13835 -25.25255 -12.22164 3.83811 41.63816 91.22906 6.55786 0.0638 -27.80344 12.8146 -4.42721 38.51091 -96.64863 12.77453 0.15285 34.57326 -0.92224 -4.00276 -21.05754 -8.3355 -4.64624 -3.18277 36.91537 9.30649 4.15315 -27.04467 -9.10287 4.90181 3.38668
-2e-05 -0.00041 0.00066 171.61001 -33.00247 -2.40602 45.35582 3.60047 -5.37905 -5.49392 -8.56265 -0.16176 -25.31195 -12.21689 3.70175 41.49396 91.17659 6.53964 0.06098 -27.87757 12.84041 -4.35906 38.5171 -96.65143 12.779 0.15229 34.28525 -0.94259 -4.06608 -20.98152 -8.33802 -4.64376 -3.18173 36.62808 9.34134 4.38604 -26.99197 -9.0799 4.88496 3.37535
-0.00026 -0.00041 0.0008 171.61111 -32.78946 -2.40693 45.13086 3.59614 -5.428 -5.52433 -8.54554 -0.1856 -25.37184 -12.21257 3.5644 41.3503 91.12232 6.52037 0.05824 -27.9539 12.86547 -4.28637 38.51886 -96.6568 12.78379 0.15153 33.98755 -0.96192 -4.12549 -20.90319 -8.34094 -4.64162 -3.18096 36.33155 9.37817 4.62702 -26.93766 -9.05602 4.86734 3.36352
-0.00051 -0.00042 0.00095 171.61088 -32.58318 -2.40801 44.91279 3.59214 -5.47581 -5.55485 -8.52805 -0.20905 -25.43125 -12.20783 3.42793 41.20616 91.06987 6.50206 0.05545 -28.02833 12.89132 -4.21792 38.52511 -96.65982 12.78828 0.15098 33.69843 -0.98223 -4.18872 -20.82691 -8.34347 -4.63912 -3.17992 36.0432 9.41322 4.86072 -26.88478 -9.03296 4.85041 3.35214
-0.00076 -0.00043 0.00109 171.60892 -32.38619 -2.40929 44.70406 3.58853 -5.52211 -5.58509 -8.51008 -0.23202 -25.49022 -12.20268 3.29258 41.06126 91.019 6.48493 0.0525 -28.09995 12.91777 -4.15446 38.53529 -96.65984 12.79244 0.15061 33.42116 -1.00363 -4.25584 -20.75342 -8.34561 -4.63637 -3.17862 35.76613 9.44591 5.08485 -26.83387 -9.01096 4.83439 3.34136
-0.001 -0.00044 0.00123 171.61657 -32.13897 -2.4094 44.44434 3.58266 -5.57675 -5.6157 -8.4948 -0.25772 -25.55216 -12.20017 3.15092 40.92021 90.95713 6.46102 0.05018 -28.18626 12.93966 -4.06172 38.51817 -96.67675 12.79863 0.14897 33.07979 -1.01843 -4.29822 -20.66476 -8.35022 -4.63562 -3.17905 35.42802 9.49161 5.36204 -26.77229 -8.98307 4.81332 3.32725
-0.00124 -0.00045 0.00138 171.60419 -31.99563 -2.41199 44.29045 3.58158 -5.61405 -5.6463 -8.4739 -0.27768 -25.60756 -12.19192 3.0225 40.7714 90.91967 6.45141 0.04674 -28.24251 12.9719 -4.03107 38.56162 -96.65826 12.80042 0.15013 32.87104 -1.04733 -4.39428 -20.60754 -8.34947 -4.6303 -3.17569 35.21621 9.51023 5.52856 -26.7328 -8.96746 4.80279 3.32009
